<svg xmlns="http://www.w3.org/2000/svg" version="1.1" xmlns:xlink="http://www.w3.org/1999/xlink" xmlns:svgjs="http://svgjs.dev/svgjs" width="1000" height="247" viewBox="0 0 1000 247">
  <g transform="matrix(1,0,0,1,-0.6059225250007785,-0.24738128730244568)">
    <svg viewBox="0 0 396 98" data-background-color="#ffffff" preserveAspectRatio="xMidYMid meet" height="247" width="1000" xmlns="http://www.w3.org/2000/svg" xmlns:xlink="http://www.w3.org/1999/xlink">
      <g id="tight-bounds" transform="matrix(1,0,0,1,0.2400546800996608,0.0981512799823463)">
        <svg viewBox="0 0 395.52 97.80369744003532" height="97.80369744003532" width="395.52">
          <g>
            <svg viewBox="0 0 750.2715518824942 185.5262233469388" height="97.80369744003532" width="395.52">
              <g>
                <rect width="8.070885810173387" height="107.39578775510203" x="325.5526927472597" y="39.06521779591838" fill="#398378" opacity="1" stroke-width="0" stroke="transparent" fill-opacity="1" class="rect-r$-0"
                      data-fill-palette-color="primary" rx="1%" id="r$-0" data-palette-color="#398378"></rect>
              </g>
              <g transform="matrix(1,0,0,1,354.7515518824943,48.014866775510214)">
                <svg viewBox="0 0 395.52 89.49648979591836" height="89.49648979591836" width="395.52">
                  <g id="textblocktransform">
                    <svg viewBox="0 0 395.52 89.49648979591836" height="89.49648979591836" width="395.52" id="textblock">
                      <g>
                        <svg viewBox="0 0 395.52 89.49648979591836" height="89.49648979591836" width="395.52">
                          <g transform="matrix(1,0,0,1,0,0)">
                            <svg width="395.52" viewBox="1.9 -35.1 195.98 44.35" height="89.49648979591836" data-palette-color="#398378">
                              <path
                                d="M13.7-32.45Q17.5-32.45 21.3-30.85L21.3-30.85 20.45-26.15 19.65-25.85Q18.05-27 16.35-27.65 14.65-28.3 13.1-28.3L13.1-28.3Q10.65-28.3 9.2-26.95 7.75-25.6 7.75-23.8L7.75-23.8Q7.75-22.05 9.2-20.93 10.65-19.8 13.75-18.35L13.75-18.35Q16.45-17.05 18.13-16 19.8-14.95 21-13.23 22.2-11.5 22.2-9.1L22.2-9.1Q22.2-6.5 20.78-4.33 19.35-2.15 16.78-0.88 14.2 0.4 10.9 0.4L10.9 0.4Q8.7 0.4 6.35-0.15 4-0.7 1.9-1.75L1.9-1.75 2.55-6.85 3.2-7.15Q5.05-5.4 7.28-4.53 9.5-3.65 11.4-3.65L11.4-3.65Q14-3.65 15.55-5.03 17.1-6.4 17.1-8.3L17.1-8.3Q17.1-10.2 15.6-11.38 14.1-12.55 11-14L11-14Q8.35-15.25 6.7-16.28 5.05-17.3 3.88-19 2.7-20.7 2.7-23.1L2.7-23.1Q2.7-25.7 4.1-27.85 5.5-30 8-31.23 10.5-32.45 13.7-32.45L13.7-32.45ZM48.5-3.9L48.95-3.55 48.5-0.75Q46.85 0.2 45.25 0.35L45.25 0.35Q43.75 0.1 42.87-0.73 42-1.55 41.55-3.2L41.55-3.2 41.2-3.2Q38.25-0.55 35.2 0.3L35.2 0.3Q31.45 0.3 29.45-1.45 27.45-3.2 27.5-6.45L27.5-6.45 27.6-12.7 27.4-22.7 32.45-23.15 32.2-7.85Q32.15-6 33.02-4.95 33.9-3.9 35.65-3.9L35.65-3.9Q38.3-3.9 41.1-6.4L41.1-6.4 41.1-22.7 45.95-23.15 45.6-5.35Q45.6-4.45 45.9-4.08 46.2-3.7 46.95-3.7L46.95-3.7Q47.55-3.7 48.5-3.9L48.5-3.9ZM64.7-23.3Q69-23.3 71.32-20.43 73.65-17.55 73.65-12.2L73.65-12.2Q73.65-6.15 70.7-2.85 67.75 0.45 62.3 0.45L62.3 0.45Q60.55 0.45 58.4 0.05L58.4 0.05 58.55 9.25 53.5 9.25 53.85-9.65 53.5-22.7 58.4-23.15 58.35-19.85 58.7-19.85Q60.3-21.25 61.65-22 63-22.75 64.7-23.3L64.7-23.3ZM62.7-3.05Q65.7-3.05 67.3-5.2 68.9-7.35 68.9-11.35L68.9-11.35Q68.9-15.15 67.59-17.18 66.3-19.2 63.85-19.2L63.85-19.2Q62.5-19.2 61.17-18.48 59.85-17.75 58.3-16.2L58.3-16.2 58.25-10.1 58.35-4.15Q60.7-3.05 62.7-3.05L62.7-3.05ZM96.64-11.9L96.09-11.3 82.04-11.25Q82.09-7.45 83.89-5.48 85.69-3.5 88.99-3.5L88.99-3.5Q92.44-3.5 95.74-5.55L95.74-5.55 96.24-5.25 95.49-1.15Q91.84 0.45 88.39 0.45L88.39 0.45Q83.24 0.45 80.32-2.73 77.39-5.9 77.39-11.4L77.39-11.4Q77.39-16.95 80.29-20.2 83.19-23.45 88.14-23.45L88.14-23.45Q92.34-23.45 94.62-21.15 96.89-18.85 96.89-14.65L96.89-14.65Q96.89-13.5 96.64-11.9L96.64-11.9ZM92.19-14.55L92.29-15.25Q92.29-17.6 91.22-18.8 90.14-20 88.09-20L88.09-20Q85.79-20 84.29-18.53 82.79-17.05 82.29-14.35L82.29-14.35 92.19-14.55ZM113.89-23.1Q114.44-23.1 115.14-23L115.14-23 115.14-18.15 114.59-18Q113.79-18.25 112.74-18.25L112.74-18.25Q111.19-18.25 109.84-17.1 108.49-15.95 107.24-13.4L107.24-13.4 107.19-10.1 107.49 0 102.39 0 102.74-9.65 102.44-22.7 107.29-23.15 107.24-18.55 107.59-18.55Q108.94-20.95 110.59-22.03 112.24-23.1 113.89-23.1L113.89-23.1ZM130.39-23.3Q134.74-23.3 137.04-20.4 139.34-17.5 139.34-12.25L139.34-12.25Q139.34-6.15 136.39-2.85 133.44 0.45 128.19 0.45L128.19 0.45Q125.64 0.45 123.09-0.7L123.09-0.7 119.89 0.6 119.14 0.1 119.49-9.6 119.19-34.7 124.29-35.1 124.09-19.85 124.39-19.85Q125.94-21.2 127.29-21.98 128.64-22.75 130.39-23.3L130.39-23.3ZM128.39-3.05Q131.29-3.05 132.94-5.13 134.59-7.2 134.59-11.4L134.59-11.4Q134.59-15.15 133.29-17.18 131.99-19.2 129.54-19.2L129.54-19.2Q126.89-19.2 124.04-16.2L124.04-16.2 123.94-10.2 124.09-4.4Q126.34-3.05 128.39-3.05L128.39-3.05ZM144.94 0L145.14-9.65 144.99-22.7 149.99-23.15 149.79-10.1 149.94 0 144.94 0ZM147.54-33.8Q148.79-33.8 149.49-33.08 150.19-32.35 150.19-31.05L150.19-31.05Q150.19-29.7 149.44-28.9 148.69-28.1 147.39-28.1L147.39-28.1Q146.09-28.1 145.36-28.85 144.64-29.6 144.64-30.9L144.64-30.9Q144.64-32.2 145.41-33 146.19-33.8 147.54-33.8L147.54-33.8ZM162.68-35.1L162.28-10.15 162.63 0 157.53 0 157.88-9.7 157.58-34.7 162.68-35.1ZM176.38-23.05L167.98-12.55Q171.53-7.5 176.93-0.9L176.93-0.9 176.93-0.3Q175.63 0.05 174.13 0.23 172.63 0.4 172.28 0.45L172.28 0.45 171.73 0.25Q166.58-6.25 163.03-12.1L163.03-12.1 163.03-12.45 169.58-20.85 170.83-23.05 176.38-23.05ZM197.63-11.9L197.08-11.3 183.03-11.25Q183.08-7.45 184.88-5.48 186.68-3.5 189.98-3.5L189.98-3.5Q193.43-3.5 196.73-5.55L196.73-5.55 197.23-5.25 196.48-1.15Q192.83 0.45 189.38 0.45L189.38 0.45Q184.23 0.45 181.31-2.73 178.38-5.9 178.38-11.4L178.38-11.4Q178.38-16.95 181.28-20.2 184.18-23.45 189.13-23.45L189.13-23.45Q193.33-23.45 195.6-21.15 197.88-18.85 197.88-14.65L197.88-14.65Q197.88-13.5 197.63-11.9L197.63-11.9ZM193.18-14.55L193.28-15.25Q193.28-17.6 192.21-18.8 191.13-20 189.08-20L189.08-20Q186.78-20 185.28-18.53 183.78-17.05 183.28-14.35L183.28-14.35 193.18-14.55Z"
                                opacity="1" transform="matrix(1,0,0,1,0,0)" fill="#398378" class="wordmark-text-0" data-fill-palette-color="primary" id="text-0"></path>
                            </svg>
                          </g>
                        </svg>
                      </g>
                    </svg>
                  </g>
                </svg>
              </g>
              <g>
                <svg viewBox="0 0 304.42471942219845 185.5262233469388" height="185.5262233469388" width="304.42471942219845">
                  <g>
                    <svg xmlns="http://www.w3.org/2000/svg" xmlns:xlink="http://www.w3.org/1999/xlink" version="1.1" x="0" y="0" viewBox="10.745053500000001 26.076770800000002 78.50989070000003 47.8464546" enable-background="new 0 0 100 100" xml:space="preserve" height="185.5262233469388" width="304.42471942219845" class="icon-icon-0" data-fill-palette-color="accent" id="icon-0"><g fill="#31c48d" data-fill-palette-color="accent"><path d="M75.185 45.785c-1.599 0-3.13 0.281-4.563 0.774l-3.9-7.486 6.548-9.728c0.646-0.961 0.391-2.264-0.568-2.911-0.512-0.344-1.12-0.426-1.675-0.288-0.163-0.041-0.332-0.069-0.508-0.069h-7.306c-1.158 0-2.097 0.939-2.097 2.096 0 1.158 0.939 2.097 2.097 2.097h4.378l-4.421 6.568H39.024c-0.032 0-0.061 0.008-0.092 0.01-0.068 0.003-0.135 0.01-0.203 0.019-0.036 0.005-0.072 0.005-0.107 0.012-0.037 0.007-0.071 0.02-0.107 0.029-0.06 0.015-0.118 0.033-0.177 0.054-0.035 0.012-0.071 0.02-0.106 0.034-0.039 0.016-0.075 0.038-0.113 0.055-0.027 0.013-0.056 0.02-0.083 0.035-0.026 0.014-0.046 0.033-0.072 0.048-0.031 0.018-0.064 0.033-0.094 0.052-0.036 0.024-0.067 0.053-0.101 0.079-0.05 0.038-0.099 0.076-0.145 0.118-0.023 0.021-0.049 0.038-0.071 0.06-0.029 0.029-0.052 0.062-0.079 0.092-0.047 0.052-0.091 0.104-0.132 0.159-0.006 0.008-0.013 0.014-0.018 0.022-0.01 0.015-0.024 0.026-0.034 0.041l-0.003 0.004c-0.001 0.001-0.002 0.002-0.002 0.003l-6.398 9.418c-1.842-0.886-3.896-1.398-6.073-1.397-7.758 0-14.069 6.311-14.069 14.069s6.311 14.069 14.069 14.069c7.044 0 12.878-5.208 13.896-11.972h11.491c0.002 0 0.004 0.001 0.006 0 0.015 0 0.031-0.005 0.046-0.005 0.143-0.003 0.283-0.02 0.417-0.051 0.045-0.01 0.087-0.028 0.132-0.041 0.107-0.032 0.21-0.069 0.308-0.117 0.024-0.012 0.05-0.018 0.074-0.03 0.003-0.002 0.007-0.002 0.01-0.004 0.031-0.016 0.055-0.039 0.085-0.057 0.063-0.038 0.123-0.078 0.182-0.122 0.037-0.028 0.077-0.054 0.111-0.084 0.021-0.018 0.04-0.038 0.06-0.058 0.044-0.041 0.084-0.084 0.124-0.128 0.047-0.052 0.091-0.104 0.131-0.16 0.018-0.024 0.04-0.044 0.057-0.068l0.001-0.001 12.112-17.993 2.85 5.471c-3.503 2.561-5.791 6.689-5.791 11.351 0 7.758 6.311 14.069 14.069 14.069s14.07-6.311 14.07-14.069S82.943 45.785 75.185 45.785zM50.412 55.792l-7.889-14.761h17.825L50.412 55.792zM38.81 42.982l7.897 14.775h-7.997c-0.486-3.228-2.065-6.094-4.356-8.215L38.81 42.982zM31.964 53.06c1.224 1.288 2.107 2.9 2.497 4.697h-5.688L31.964 53.06zM24.814 69.73c-5.445 0-9.876-4.431-9.876-9.876s4.431-9.876 9.876-9.876c1.303 0 2.545 0.26 3.685 0.72l-5.419 7.978c0 0.001-0.001 0.001-0.001 0.002-0.078 0.115-0.145 0.238-0.199 0.366-0.028 0.068-0.043 0.138-0.064 0.207-0.019 0.062-0.043 0.121-0.056 0.186-0.028 0.137-0.042 0.276-0.042 0.415 0 0.001 0 0.002 0 0.002 0 0.022 0.006 0.043 0.006 0.065 0.004 0.115 0.012 0.229 0.035 0.341 0.013 0.067 0.037 0.13 0.056 0.194 0.02 0.065 0.035 0.132 0.061 0.195 0.027 0.065 0.063 0.125 0.097 0.187 0.031 0.058 0.057 0.118 0.094 0.173 0.041 0.061 0.09 0.115 0.137 0.173 0.04 0.048 0.075 0.099 0.119 0.144 0.083 0.084 0.175 0.158 0.271 0.227 0.015 0.011 0.027 0.025 0.043 0.036 0.001 0 0.001 0.001 0.002 0.001 0.01 0.007 0.02 0.011 0.03 0.017 0.096 0.062 0.194 0.115 0.295 0.16 0.034 0.015 0.069 0.027 0.104 0.04 0.086 0.033 0.173 0.06 0.261 0.081 0.036 0.009 0.071 0.017 0.108 0.025 0.125 0.023 0.25 0.038 0.376 0.038 0 0 0.001 0 0-0.001 0.001 0 0.001 0 0.001 0.001h9.647C33.497 66.392 29.54 69.73 24.814 69.73zM75.185 69.73c-5.445 0-9.876-4.431-9.876-9.876 0-3.045 1.387-5.771 3.561-7.584l4.456 8.553c0.373 0.717 1.104 1.129 1.861 1.128 0.327 0 0.658-0.077 0.967-0.238 1.027-0.535 1.426-1.801 0.89-2.828l-4.454-8.55c0.829-0.226 1.696-0.358 2.595-0.357 5.446 0 9.877 4.431 9.877 9.876S80.631 69.73 75.185 69.73z" fill="#31c48d" data-fill-palette-color="accent"></path><path
                      d="M35.181 33.485h7.686c1.158 0 2.097-0.939 2.097-2.096 0-1.158-0.939-2.097-2.097-2.097h-7.686c-1.158 0-2.097 0.939-2.097 2.097C33.084 32.547 34.023 33.485 35.181 33.485z" fill="#31c48d"
                      data-fill-palette-color="accent"></path></g></svg>
                  </g>
                </svg>
              </g>
            </svg>
          </g>
          <defs></defs>
        </svg>
        <rect width="395.52" height="97.80369744003532" fill="none" stroke="none" visibility="hidden"></rect>
      </g>
    </svg>
  </g>
</svg>
